<svg xmlns="http://www.w3.org/2000/svg" xmlns:xlink="http://www.w3.org/1999/xlink" width="500" zoomAndPan="magnify" viewBox="0 0 375 374.999991" height="500" preserveAspectRatio="xMidYMid meet" version="1.2"><defs><clipPath id="71263c4166"><path d="M 6.429688 101.230469 L 290.894531 101.230469 L 290.894531 265.921875 L 6.429688 265.921875 Z M 6.429688 101.230469 "/></clipPath></defs><g id="5950309c3d"><g clip-rule="nonzero" clip-path="url(#71263c4166)"><path style=" stroke:none;fill-rule:nonzero;fill:#4f98d8;fill-opacity:1;" d="M 6.480469 203.886719 L 6.53125 202.03125 L 6.660156 200.292969 C 7.003906 195.65625 7.878906 191.023438 9.238281 186.523438 C 10.589844 182.015625 12.480469 177.65625 14.804688 173.527344 C 17.144531 169.410156 19.929688 165.527344 23.109375 161.96875 C 26.300781 158.429688 29.855469 155.191406 33.757812 152.390625 C 37.667969 149.605469 41.875 147.199219 46.320312 145.304688 C 50.765625 143.410156 55.421875 141.960938 60.195312 141.070312 C 64.964844 140.175781 69.820312 139.78125 74.675781 139.917969 C 76.296875 139.964844 77.917969 140.078125 79.535156 140.242188 C 80.046875 139.460938 80.566406 138.6875 81.101562 137.925781 C 83.398438 134.664062 85.925781 131.574219 88.644531 128.660156 C 91.359375 125.742188 94.289062 123.023438 97.386719 120.515625 C 100.488281 118.007812 103.75 115.6875 107.171875 113.644531 C 110.589844 111.585938 114.152344 109.761719 117.820312 108.191406 C 121.492188 106.625 125.273438 105.328125 129.121094 104.285156 C 132.96875 103.234375 136.890625 102.480469 140.839844 101.996094 C 144.785156 101.503906 148.757812 101.277344 152.71875 101.347656 L 155.492188 101.4375 L 157.042969 101.535156 L 158.628906 101.640625 C 159.660156 101.726562 160.613281 101.839844 161.605469 101.941406 C 162.589844 102.046875 163.570312 102.203125 164.550781 102.347656 C 168.464844 102.957031 172.335938 103.835938 176.125 104.972656 C 179.90625 106.121094 183.609375 107.539062 187.1875 109.191406 C 190.765625 110.84375 194.210938 112.769531 197.511719 114.890625 C 200.816406 117.015625 203.941406 119.390625 206.898438 121.945312 C 209.859375 124.492188 212.617188 127.261719 215.179688 130.191406 C 218.835938 134.371094 222.046875 138.910156 224.78125 143.699219 C 227.179688 143.492188 229.585938 143.417969 231.972656 143.46875 C 232.59375 143.488281 233.210938 143.515625 233.828125 143.546875 L 233.886719 143.550781 C 233.851562 143.550781 234.316406 143.558594 234.132812 143.554688 L 234.15625 143.558594 L 234.257812 143.566406 L 234.457031 143.585938 L 234.859375 143.621094 L 235.667969 143.695312 L 236.472656 143.765625 C 236.75 143.792969 236.980469 143.808594 237.332031 143.855469 L 239.289062 144.101562 C 240.628906 144.246094 241.78125 144.507812 243.007812 144.734375 C 243.613281 144.839844 244.207031 144.992188 244.804688 145.136719 L 246.597656 145.574219 C 247.78125 145.902344 248.953125 146.253906 250.121094 146.621094 L 251.847656 147.234375 C 252.425781 147.441406 253 147.644531 253.558594 147.890625 C 254.6875 148.359375 255.820312 148.804688 256.90625 149.34375 L 258.550781 150.128906 L 260.152344 150.992188 C 262.285156 152.132812 264.316406 153.445312 266.289062 154.8125 C 267.253906 155.523438 268.214844 156.242188 269.148438 156.988281 L 270.523438 158.132812 L 271.207031 158.710938 L 271.867188 159.316406 L 273.167969 160.53125 C 273.601562 160.933594 274.007812 161.371094 274.425781 161.792969 C 274.835938 162.222656 275.257812 162.632812 275.652344 163.074219 L 276.828125 164.398438 L 277.414062 165.0625 L 277.964844 165.753906 L 279.058594 167.136719 C 279.769531 168.074219 280.449219 169.03125 281.117188 169.988281 C 282.402344 171.941406 283.636719 173.914062 284.671875 175.988281 C 284.933594 176.507812 285.203125 177.019531 285.453125 177.539062 L 286.15625 179.121094 C 286.648438 180.160156 287.035156 181.246094 287.457031 182.308594 C 287.675781 182.839844 287.84375 183.390625 288.027344 183.929688 L 288.5625 185.554688 C 288.855469 186.664062 289.179688 187.746094 289.429688 188.855469 C 289.660156 189.964844 289.945312 191.058594 290.105469 192.175781 L 290.378906 193.839844 C 290.464844 194.394531 290.503906 194.957031 290.566406 195.511719 C 290.621094 196.070312 290.691406 196.625 290.734375 197.179688 L 290.824219 198.851562 C 290.914062 199.957031 290.871094 201.074219 290.867188 202.175781 C 290.875 202.726562 290.84375 203.277344 290.808594 203.828125 L 290.710938 205.472656 C 290.609375 206.566406 290.46875 207.652344 290.332031 208.734375 C 290.128906 207.65625 289.976562 206.585938 289.757812 205.527344 L 289.414062 203.945312 C 289.304688 203.421875 289.191406 202.898438 289.042969 202.382812 C 288.753906 201.347656 288.507812 200.316406 288.171875 199.304688 L 287.695312 197.796875 C 287.523438 197.292969 287.328125 196.800781 287.152344 196.308594 C 286.960938 195.8125 286.796875 195.320312 286.585938 194.835938 L 285.980469 193.386719 C 285.601562 192.417969 285.105469 191.496094 284.671875 190.558594 C 284.21875 189.628906 283.695312 188.730469 283.210938 187.824219 C 282.664062 186.949219 282.179688 186.050781 281.613281 185.195312 C 281.039062 184.351562 280.511719 183.484375 279.890625 182.675781 L 278.988281 181.453125 C 278.679688 181.058594 278.351562 180.667969 278.035156 180.277344 C 276.78125 178.703125 275.417969 177.230469 274.019531 175.816406 C 273.300781 175.128906 272.582031 174.441406 271.84375 173.789062 L 270.714844 172.828125 L 270.152344 172.351562 L 269.566406 171.898438 L 268.40625 170.996094 C 268.019531 170.695312 267.609375 170.425781 267.214844 170.136719 C 266.8125 169.863281 266.425781 169.566406 266.015625 169.300781 L 264.785156 168.519531 L 264.171875 168.125 L 263.546875 167.761719 L 262.289062 167.035156 C 261.445312 166.570312 260.585938 166.140625 259.730469 165.707031 C 257.988281 164.898438 256.246094 164.125 254.449219 163.519531 L 253.109375 163.054688 L 251.75 162.648438 C 250.859375 162.359375 249.933594 162.160156 249.027344 161.929688 C 248.574219 161.808594 248.113281 161.726562 247.652344 161.636719 L 246.277344 161.371094 C 245.355469 161.222656 244.433594 161.089844 243.515625 160.964844 L 242.132812 160.835938 C 241.671875 160.789062 241.210938 160.738281 240.75 160.730469 C 239.835938 160.703125 238.867188 160.613281 238.054688 160.648438 L 236.792969 160.648438 C 236.613281 160.640625 236.304688 160.664062 236.042969 160.671875 L 235.238281 160.703125 L 234.429688 160.734375 L 234.023438 160.75 L 233.824219 160.757812 L 233.722656 160.761719 L 233.699219 160.761719 C 233.492188 160.761719 233.945312 160.769531 233.894531 160.769531 L 233.851562 160.769531 C 233.390625 160.808594 232.9375 160.847656 232.480469 160.898438 C 230.664062 161.089844 228.867188 161.367188 227.097656 161.757812 C 225.332031 162.148438 223.59375 162.628906 221.894531 163.195312 L 215.371094 165.367188 L 211.128906 158.476562 C 207.992188 153.378906 204.214844 148.730469 199.945312 144.667969 C 197.8125 142.632812 195.546875 140.757812 193.195312 139.023438 C 190.832031 137.289062 188.359375 135.742188 185.820312 134.335938 C 183.28125 132.929688 180.644531 131.722656 177.960938 130.671875 C 175.273438 129.621094 172.527344 128.757812 169.738281 128.082031 C 166.953125 127.394531 164.128906 126.898438 161.285156 126.59375 C 160.574219 126.535156 159.863281 126.445312 159.152344 126.394531 C 158.445312 126.355469 157.703125 126.292969 157.03125 126.261719 L 155.058594 126.207031 L 152.71875 126.210938 C 149.855469 126.289062 147.007812 126.519531 144.199219 126.945312 C 141.386719 127.371094 138.613281 127.992188 135.886719 128.769531 C 133.164062 129.554688 130.5 130.53125 127.90625 131.671875 C 125.308594 132.804688 122.789062 134.109375 120.367188 135.585938 C 117.949219 137.066406 115.605469 138.675781 113.390625 140.453125 C 111.175781 142.230469 109.082031 144.160156 107.101562 146.199219 C 105.125 148.246094 103.292969 150.429688 101.605469 152.722656 C 99.90625 155.007812 98.363281 157.410156 96.984375 159.90625 L 92.105469 168.761719 L 82.769531 166.140625 C 79.773438 165.296875 76.695312 164.730469 73.5625 164.523438 C 70.433594 164.324219 67.265625 164.390625 64.152344 164.828125 C 61.039062 165.261719 57.953125 165.980469 54.972656 167.054688 C 51.996094 168.125 49.09375 169.476562 46.359375 171.152344 C 43.632812 172.832031 41.050781 174.796875 38.695312 177.023438 C 36.328125 179.242188 34.175781 181.714844 32.292969 184.398438 C 31.808594 185.0625 31.390625 185.765625 30.925781 186.449219 C 30.492188 187.144531 30.085938 187.863281 29.660156 188.570312 C 29.289062 189.304688 28.886719 190.027344 28.519531 190.769531 C 28.1875 191.523438 27.792969 192.261719 27.484375 193.027344 C 26.175781 196.078125 25.183594 199.289062 24.511719 202.597656 L 24.261719 203.84375 L 24.085938 204.980469 C 24.027344 205.375 23.957031 205.71875 23.902344 206.15625 L 23.769531 207.65625 L 23.699219 208.40625 L 23.660156 208.875 L 23.652344 208.917969 C 23.648438 209.128906 23.652344 208.6875 23.652344 208.746094 L 23.582031 210.1875 C 23.566406 210.617188 23.523438 211.046875 23.527344 211.476562 L 23.53125 212.761719 C 23.539062 216.199219 23.910156 219.648438 24.628906 223.066406 C 25.347656 226.484375 26.445312 229.851562 27.890625 233.101562 C 29.328125 236.355469 31.105469 239.511719 33.230469 242.460938 C 35.367188 245.402344 37.757812 248.230469 40.511719 250.730469 C 43.257812 253.234375 46.253906 255.546875 49.527344 257.488281 L 50.753906 258.226562 L 52.015625 258.914062 C 52.4375 259.136719 52.851562 259.386719 53.289062 259.589844 L 54.589844 260.214844 C 55.453125 260.652344 56.351562 260.996094 57.246094 261.382812 L 57.917969 261.667969 L 58.601562 261.921875 L 59.976562 262.433594 C 60.433594 262.617188 60.898438 262.753906 61.367188 262.902344 L 62.777344 263.347656 C 63.71875 263.628906 64.679688 263.871094 65.640625 264.136719 C 66.597656 264.367188 67.570312 264.554688 68.550781 264.78125 L 71.535156 265.304688 C 70.53125 265.433594 69.53125 265.554688 68.527344 265.664062 C 67.515625 265.734375 66.488281 265.796875 65.460938 265.832031 C 64.441406 265.832031 63.410156 265.871094 62.382812 265.828125 L 60.839844 265.742188 C 60.324219 265.714844 59.804688 265.691406 59.289062 265.628906 C 57.226562 265.441406 55.160156 265.144531 53.113281 264.695312 L 51.574219 264.359375 C 51.058594 264.25 50.558594 264.09375 50.046875 263.960938 L 48.519531 263.542969 C 48.015625 263.386719 47.515625 263.21875 47.011719 263.046875 C 43.003906 261.6875 39.074219 259.914062 35.390625 257.65625 C 34.472656 257.082031 33.574219 256.484375 32.664062 255.886719 C 31.789062 255.25 30.890625 254.628906 30.03125 253.960938 C 28.3125 252.621094 26.632812 251.203125 25.070312 249.65625 C 21.921875 246.585938 19.058594 243.160156 16.589844 239.425781 C 16.269531 238.964844 15.976562 238.488281 15.691406 238.007812 L 14.820312 236.566406 C 14.25 235.597656 13.742188 234.597656 13.199219 233.605469 C 12.699219 232.59375 12.222656 231.570312 11.75 230.539062 C 11.320312 229.492188 10.867188 228.449219 10.46875 227.390625 C 8.867188 223.136719 7.742188 218.671875 7.097656 214.121094 L 6.871094 212.40625 C 6.792969 211.839844 6.765625 211.265625 6.710938 210.691406 L 6.574219 208.96875 L 6.507812 207.214844 L 6.445312 205.710938 C 6.441406 205.148438 6.464844 204.496094 6.480469 203.886719 "/></g><g style="fill:#243544;fill-opacity:1;"><g transform="translate(68.913936, 268.722754)"><path style="stroke:none" d="M 12.3125 -15.78125 L 12.3125 -14.203125 L 7.375 -14.203125 L 7.375 0 L 5.53125 0 L 5.53125 -14.203125 L 0.578125 -14.203125 L 0.578125 -15.78125 Z M 12.3125 -15.78125 "/></g></g><g style="fill:#243544;fill-opacity:1;"><g transform="translate(81.805793, 268.722754)"><path style="stroke:none" d="M 11.34375 -5.546875 L 3.15625 -5.546875 C 3.207031 -4.097656 3.554688 -3.035156 4.203125 -2.359375 C 4.847656 -1.679688 5.734375 -1.34375 6.859375 -1.34375 C 7.703125 -1.34375 8.382812 -1.492188 8.90625 -1.796875 C 9.425781 -2.097656 9.832031 -2.578125 10.125 -3.234375 L 10.359375 -3.234375 L 11.5 -2.546875 C 11.15625 -1.679688 10.601562 -1 9.84375 -0.5 C 9.082031 -0.0078125 8.085938 0.234375 6.859375 0.234375 C 5.703125 0.234375 4.707031 0.00390625 3.875 -0.453125 C 3.050781 -0.910156 2.414062 -1.597656 1.96875 -2.515625 C 1.53125 -3.429688 1.3125 -4.578125 1.3125 -5.953125 C 1.3125 -7.304688 1.546875 -8.445312 2.015625 -9.375 C 2.484375 -10.300781 3.125 -10.992188 3.9375 -11.453125 C 4.757812 -11.910156 5.695312 -12.140625 6.75 -12.140625 C 8.269531 -12.140625 9.457031 -11.707031 10.3125 -10.84375 C 11.175781 -9.976562 11.609375 -8.703125 11.609375 -7.015625 C 11.609375 -6.359375 11.597656 -5.910156 11.578125 -5.671875 Z M 9.875 -7.015625 C 9.84375 -8.285156 9.5625 -9.207031 9.03125 -9.78125 C 8.5 -10.351562 7.738281 -10.640625 6.75 -10.640625 C 5.707031 -10.640625 4.890625 -10.347656 4.296875 -9.765625 C 3.703125 -9.191406 3.335938 -8.273438 3.203125 -7.015625 Z M 9.875 -7.015625 "/></g></g><g style="fill:#243544;fill-opacity:1;"><g transform="translate(94.503299, 268.722754)"><path style="stroke:none" d="M 6.828125 0.234375 C 5.773438 0.234375 4.832031 -0.00390625 4 -0.484375 C 3.164062 -0.960938 2.507812 -1.664062 2.03125 -2.59375 C 1.550781 -3.53125 1.3125 -4.648438 1.3125 -5.953125 C 1.3125 -7.253906 1.550781 -8.367188 2.03125 -9.296875 C 2.507812 -10.234375 3.164062 -10.941406 4 -11.421875 C 4.832031 -11.898438 5.773438 -12.140625 6.828125 -12.140625 C 8.085938 -12.140625 9.085938 -11.898438 9.828125 -11.421875 C 10.578125 -10.941406 11.117188 -10.304688 11.453125 -9.515625 L 10.25 -8.65625 L 10.046875 -8.65625 C 9.710938 -9.3125 9.289062 -9.789062 8.78125 -10.09375 C 8.28125 -10.40625 7.628906 -10.5625 6.828125 -10.5625 C 6.097656 -10.5625 5.453125 -10.382812 4.890625 -10.03125 C 4.335938 -9.6875 3.910156 -9.171875 3.609375 -8.484375 C 3.304688 -7.796875 3.15625 -6.953125 3.15625 -5.953125 C 3.15625 -4.953125 3.304688 -4.109375 3.609375 -3.421875 C 3.921875 -2.734375 4.351562 -2.210938 4.90625 -1.859375 C 5.457031 -1.515625 6.097656 -1.34375 6.828125 -1.34375 C 7.660156 -1.34375 8.347656 -1.53125 8.890625 -1.90625 C 9.429688 -2.28125 9.859375 -2.875 10.171875 -3.6875 L 10.390625 -3.6875 L 11.546875 -3 C 11.242188 -2 10.691406 -1.207031 9.890625 -0.625 C 9.097656 -0.0507812 8.078125 0.234375 6.828125 0.234375 Z M 6.828125 0.234375 "/></g></g><g style="fill:#243544;fill-opacity:1;"><g transform="translate(106.779723, 268.722754)"><path style="stroke:none" d="M 2.078125 0 L 2.078125 -16.6875 L 3.828125 -16.6875 L 3.828125 -10.21875 L 4.0625 -10.171875 C 4.90625 -11.484375 6.128906 -12.140625 7.734375 -12.140625 C 9.171875 -12.140625 10.210938 -11.769531 10.859375 -11.03125 C 11.503906 -10.300781 11.828125 -9.179688 11.828125 -7.671875 L 11.828125 0 L 10.0625 0 L 10.0625 -7.625 C 10.0625 -8.34375 9.96875 -8.914062 9.78125 -9.34375 C 9.601562 -9.78125 9.320312 -10.097656 8.9375 -10.296875 C 8.550781 -10.492188 8.046875 -10.59375 7.421875 -10.59375 C 6.335938 -10.59375 5.46875 -10.242188 4.8125 -9.546875 C 4.15625 -8.847656 3.828125 -7.703125 3.828125 -6.109375 L 3.828125 0 Z M 2.078125 0 "/></g></g><g style="fill:#243544;fill-opacity:1;"><g transform="translate(120.492167, 268.722754)"><path style="stroke:none" d="M 2.078125 0 L 2.078125 -11.90625 L 3.75 -11.90625 L 3.75 -10.046875 L 3.96875 -9.984375 C 4.363281 -10.679688 4.867188 -11.210938 5.484375 -11.578125 C 6.097656 -11.953125 6.847656 -12.140625 7.734375 -12.140625 C 9.171875 -12.140625 10.210938 -11.769531 10.859375 -11.03125 C 11.503906 -10.300781 11.828125 -9.179688 11.828125 -7.671875 L 11.828125 0 L 10.0625 0 L 10.0625 -7.625 C 10.0625 -8.34375 9.96875 -8.914062 9.78125 -9.34375 C 9.601562 -9.78125 9.320312 -10.097656 8.9375 -10.296875 C 8.550781 -10.492188 8.046875 -10.59375 7.421875 -10.59375 C 6.347656 -10.59375 5.476562 -10.238281 4.8125 -9.53125 C 4.15625 -8.820312 3.828125 -7.679688 3.828125 -6.109375 L 3.828125 0 Z M 2.078125 0 "/></g></g><g style="fill:#243544;fill-opacity:1;"><g transform="translate(134.20461, 268.722754)"><path style="stroke:none" d="M 6.828125 0.234375 C 5.710938 0.234375 4.738281 -0.00390625 3.90625 -0.484375 C 3.070312 -0.960938 2.429688 -1.660156 1.984375 -2.578125 C 1.535156 -3.503906 1.3125 -4.628906 1.3125 -5.953125 C 1.3125 -7.265625 1.535156 -8.382812 1.984375 -9.3125 C 2.429688 -10.238281 3.070312 -10.941406 3.90625 -11.421875 C 4.738281 -11.898438 5.710938 -12.140625 6.828125 -12.140625 C 7.953125 -12.140625 8.929688 -11.898438 9.765625 -11.421875 C 10.597656 -10.941406 11.238281 -10.238281 11.6875 -9.3125 C 12.132812 -8.382812 12.359375 -7.265625 12.359375 -5.953125 C 12.359375 -4.628906 12.132812 -3.503906 11.6875 -2.578125 C 11.238281 -1.660156 10.597656 -0.960938 9.765625 -0.484375 C 8.929688 -0.00390625 7.953125 0.234375 6.828125 0.234375 Z M 6.828125 -1.34375 C 8.015625 -1.34375 8.921875 -1.71875 9.546875 -2.46875 C 10.179688 -3.21875 10.5 -4.378906 10.5 -5.953125 C 10.5 -7.523438 10.179688 -8.6875 9.546875 -9.4375 C 8.921875 -10.1875 8.015625 -10.5625 6.828125 -10.5625 C 5.640625 -10.5625 4.726562 -10.179688 4.09375 -9.421875 C 3.46875 -8.671875 3.15625 -7.515625 3.15625 -5.953125 C 3.15625 -4.378906 3.46875 -3.21875 4.09375 -2.46875 C 4.726562 -1.71875 5.640625 -1.34375 6.828125 -1.34375 Z M 6.828125 -1.34375 "/></g></g><g style="fill:#243544;fill-opacity:1;"><g transform="translate(147.873865, 268.722754)"><path style="stroke:none" d="M 4.734375 0.234375 C 3.890625 0.234375 3.226562 -0.00390625 2.75 -0.484375 C 2.269531 -0.960938 2.03125 -1.679688 2.03125 -2.640625 L 2.03125 -16.6875 L 3.796875 -16.6875 L 3.796875 -2.75 C 3.796875 -2.257812 3.890625 -1.898438 4.078125 -1.671875 C 4.265625 -1.453125 4.5625 -1.34375 4.96875 -1.34375 C 5.207031 -1.34375 5.453125 -1.382812 5.703125 -1.46875 L 5.859375 -1.421875 L 6.0625 -0.046875 C 5.9375 0.046875 5.753906 0.113281 5.515625 0.15625 C 5.273438 0.207031 5.015625 0.234375 4.734375 0.234375 Z M 4.734375 0.234375 "/></g></g><g style="fill:#243544;fill-opacity:1;"><g transform="translate(154.352185, 268.722754)"><path style="stroke:none" d="M 6.828125 0.234375 C 5.710938 0.234375 4.738281 -0.00390625 3.90625 -0.484375 C 3.070312 -0.960938 2.429688 -1.660156 1.984375 -2.578125 C 1.535156 -3.503906 1.3125 -4.628906 1.3125 -5.953125 C 1.3125 -7.265625 1.535156 -8.382812 1.984375 -9.3125 C 2.429688 -10.238281 3.070312 -10.941406 3.90625 -11.421875 C 4.738281 -11.898438 5.710938 -12.140625 6.828125 -12.140625 C 7.953125 -12.140625 8.929688 -11.898438 9.765625 -11.421875 C 10.597656 -10.941406 11.238281 -10.238281 11.6875 -9.3125 C 12.132812 -8.382812 12.359375 -7.265625 12.359375 -5.953125 C 12.359375 -4.628906 12.132812 -3.503906 11.6875 -2.578125 C 11.238281 -1.660156 10.597656 -0.960938 9.765625 -0.484375 C 8.929688 -0.00390625 7.953125 0.234375 6.828125 0.234375 Z M 6.828125 -1.34375 C 8.015625 -1.34375 8.921875 -1.71875 9.546875 -2.46875 C 10.179688 -3.21875 10.5 -4.378906 10.5 -5.953125 C 10.5 -7.523438 10.179688 -8.6875 9.546875 -9.4375 C 8.921875 -10.1875 8.015625 -10.5625 6.828125 -10.5625 C 5.640625 -10.5625 4.726562 -10.179688 4.09375 -9.421875 C 3.46875 -8.671875 3.15625 -7.515625 3.15625 -5.953125 C 3.15625 -4.378906 3.46875 -3.21875 4.09375 -2.46875 C 4.726562 -1.71875 5.640625 -1.34375 6.828125 -1.34375 Z M 6.828125 -1.34375 "/></g></g><g style="fill:#243544;fill-opacity:1;"><g transform="translate(168.02144, 268.722754)"><path style="stroke:none" d="M 6.125 5.046875 C 4.25 5.046875 2.878906 4.734375 2.015625 4.109375 C 1.148438 3.484375 0.71875 2.65625 0.71875 1.625 C 0.71875 0.945312 0.921875 0.410156 1.328125 0.015625 C 1.734375 -0.378906 2.320312 -0.660156 3.09375 -0.828125 L 3.09375 -1.0625 C 2.71875 -1.269531 2.4375 -1.515625 2.25 -1.796875 C 2.070312 -2.078125 1.984375 -2.410156 1.984375 -2.796875 C 1.984375 -3.253906 2.128906 -3.625 2.421875 -3.90625 C 2.710938 -4.195312 3.144531 -4.421875 3.71875 -4.578125 L 3.71875 -4.796875 C 2.425781 -5.484375 1.78125 -6.597656 1.78125 -8.140625 C 1.78125 -8.921875 1.957031 -9.613281 2.3125 -10.21875 C 2.664062 -10.820312 3.164062 -11.289062 3.8125 -11.625 C 4.46875 -11.96875 5.234375 -12.140625 6.109375 -12.140625 C 7.109375 -12.140625 7.941406 -11.914062 8.609375 -11.46875 C 8.867188 -11.75 9.0625 -12.050781 9.1875 -12.375 C 9.3125 -12.695312 9.390625 -13.0625 9.421875 -13.46875 L 9.65625 -13.609375 L 11.09375 -13.25 C 11.019531 -12.644531 10.835938 -12.132812 10.546875 -11.71875 C 10.253906 -11.300781 9.84375 -10.957031 9.3125 -10.6875 L 9.3125 -10.453125 C 9.695312 -10.148438 9.976562 -9.796875 10.15625 -9.390625 C 10.34375 -8.984375 10.4375 -8.515625 10.4375 -7.984375 C 10.4375 -7.234375 10.253906 -6.554688 9.890625 -5.953125 C 9.535156 -5.359375 9.03125 -4.890625 8.375 -4.546875 C 7.71875 -4.203125 6.960938 -4.03125 6.109375 -4.03125 C 6.003906 -4.03125 5.828125 -4.039062 5.578125 -4.0625 C 5.285156 -4.070312 5.070312 -4.078125 4.9375 -4.078125 C 4.5625 -4.078125 4.257812 -3.976562 4.03125 -3.78125 C 3.8125 -3.59375 3.703125 -3.347656 3.703125 -3.046875 C 3.703125 -2.671875 3.820312 -2.394531 4.0625 -2.21875 C 4.300781 -2.039062 4.695312 -1.941406 5.25 -1.921875 L 8.078125 -1.828125 C 9.296875 -1.785156 10.195312 -1.5 10.78125 -0.96875 C 11.363281 -0.445312 11.65625 0.285156 11.65625 1.234375 C 11.65625 1.953125 11.460938 2.597656 11.078125 3.171875 C 10.703125 3.742188 10.097656 4.195312 9.265625 4.53125 C 8.441406 4.875 7.394531 5.046875 6.125 5.046875 Z M 6.109375 -5.546875 C 6.953125 -5.546875 7.601562 -5.765625 8.0625 -6.203125 C 8.519531 -6.640625 8.75 -7.253906 8.75 -8.046875 C 8.75 -8.867188 8.519531 -9.503906 8.0625 -9.953125 C 7.613281 -10.398438 6.960938 -10.625 6.109375 -10.625 C 5.265625 -10.625 4.617188 -10.398438 4.171875 -9.953125 C 3.722656 -9.515625 3.5 -8.878906 3.5 -8.046875 C 3.5 -7.253906 3.722656 -6.640625 4.171875 -6.203125 C 4.617188 -5.765625 5.265625 -5.546875 6.109375 -5.546875 Z M 6.125 3.546875 C 7.007812 3.546875 7.726562 3.445312 8.28125 3.25 C 8.84375 3.050781 9.242188 2.789062 9.484375 2.46875 C 9.734375 2.15625 9.859375 1.800781 9.859375 1.40625 C 9.859375 1.050781 9.789062 0.765625 9.65625 0.546875 C 9.519531 0.335938 9.304688 0.175781 9.015625 0.0625 C 8.722656 -0.0390625 8.320312 -0.109375 7.8125 -0.140625 L 5.140625 -0.265625 L 4.765625 -0.265625 C 3.273438 -0.242188 2.53125 0.332031 2.53125 1.46875 C 2.53125 2.851562 3.726562 3.546875 6.125 3.546875 Z M 6.125 3.546875 "/></g></g><g style="fill:#243544;fill-opacity:1;"><g transform="translate(180.222275, 268.722754)"><path style="stroke:none" d="M 2.390625 5.046875 C 1.984375 5.046875 1.601562 5.007812 1.25 4.9375 C 0.90625 4.875 0.609375 4.78125 0.359375 4.65625 L 0.6875 3.265625 L 0.875 3.203125 C 1.050781 3.285156 1.265625 3.359375 1.515625 3.421875 C 1.773438 3.484375 2.046875 3.515625 2.328125 3.515625 C 2.804688 3.515625 3.203125 3.445312 3.515625 3.3125 C 3.835938 3.1875 4.109375 2.972656 4.328125 2.671875 C 4.554688 2.378906 4.769531 1.972656 4.96875 1.453125 L 5.390625 0.28125 L 0.609375 -11.90625 L 2.5 -11.90625 L 6.25 -2.1875 L 6.453125 -2.1875 L 10.078125 -11.90625 L 11.890625 -11.90625 L 6.5625 1.875 C 6.257812 2.632812 5.921875 3.242188 5.546875 3.703125 C 5.171875 4.171875 4.726562 4.507812 4.21875 4.71875 C 3.707031 4.9375 3.097656 5.046875 2.390625 5.046875 Z M 2.390625 5.046875 "/></g></g><g style="fill:#243544;fill-opacity:1;"><g transform="translate(192.779426, 268.722754)"><path style="stroke:none" d=""/></g></g><g style="fill:#243544;fill-opacity:1;"><g transform="translate(198.19962, 268.722754)"><path style="stroke:none" d="M 6.890625 0.234375 C 5.898438 0.234375 5.007812 0.0976562 4.21875 -0.171875 C 3.4375 -0.441406 2.78125 -0.796875 2.25 -1.234375 C 1.726562 -1.679688 1.335938 -2.164062 1.078125 -2.6875 L 2.09375 -3.921875 L 2.359375 -3.921875 C 3.335938 -2.273438 4.847656 -1.453125 6.890625 -1.453125 C 8.078125 -1.453125 8.960938 -1.695312 9.546875 -2.1875 C 10.128906 -2.6875 10.421875 -3.378906 10.421875 -4.265625 C 10.421875 -4.785156 10.320312 -5.222656 10.125 -5.578125 C 9.9375 -5.941406 9.625 -6.25 9.1875 -6.5 C 8.75 -6.757812 8.148438 -6.984375 7.390625 -7.171875 L 5.546875 -7.625 C 4.171875 -7.957031 3.15625 -8.484375 2.5 -9.203125 C 1.851562 -9.921875 1.53125 -10.835938 1.53125 -11.953125 C 1.53125 -12.734375 1.726562 -13.429688 2.125 -14.046875 C 2.53125 -14.660156 3.125 -15.140625 3.90625 -15.484375 C 4.6875 -15.835938 5.613281 -16.015625 6.6875 -16.015625 C 7.875 -16.015625 8.875 -15.84375 9.6875 -15.5 C 10.507812 -15.164062 11.164062 -14.664062 11.65625 -14 L 10.75 -12.78125 L 10.484375 -12.78125 C 10.023438 -13.332031 9.488281 -13.738281 8.875 -14 C 8.257812 -14.257812 7.53125 -14.390625 6.6875 -14.390625 C 5.59375 -14.390625 4.765625 -14.175781 4.203125 -13.75 C 3.648438 -13.320312 3.375 -12.738281 3.375 -12 C 3.375 -11.28125 3.578125 -10.707031 3.984375 -10.28125 C 4.398438 -9.863281 5.09375 -9.539062 6.0625 -9.3125 L 7.953125 -8.859375 C 9.484375 -8.503906 10.59375 -7.953125 11.28125 -7.203125 C 11.96875 -6.460938 12.3125 -5.507812 12.3125 -4.34375 C 12.3125 -3.457031 12.113281 -2.671875 11.71875 -1.984375 C 11.320312 -1.296875 10.710938 -0.753906 9.890625 -0.359375 C 9.078125 0.0351562 8.078125 0.234375 6.890625 0.234375 Z M 6.890625 0.234375 "/></g></g><g style="fill:#243544;fill-opacity:1;"><g transform="translate(211.728519, 268.722754)"><path style="stroke:none" d="M 6.828125 0.234375 C 5.710938 0.234375 4.738281 -0.00390625 3.90625 -0.484375 C 3.070312 -0.960938 2.429688 -1.660156 1.984375 -2.578125 C 1.535156 -3.503906 1.3125 -4.628906 1.3125 -5.953125 C 1.3125 -7.265625 1.535156 -8.382812 1.984375 -9.3125 C 2.429688 -10.238281 3.070312 -10.941406 3.90625 -11.421875 C 4.738281 -11.898438 5.710938 -12.140625 6.828125 -12.140625 C 7.953125 -12.140625 8.929688 -11.898438 9.765625 -11.421875 C 10.597656 -10.941406 11.238281 -10.238281 11.6875 -9.3125 C 12.132812 -8.382812 12.359375 -7.265625 12.359375 -5.953125 C 12.359375 -4.628906 12.132812 -3.503906 11.6875 -2.578125 C 11.238281 -1.660156 10.597656 -0.960938 9.765625 -0.484375 C 8.929688 -0.00390625 7.953125 0.234375 6.828125 0.234375 Z M 6.828125 -1.34375 C 8.015625 -1.34375 8.921875 -1.71875 9.546875 -2.46875 C 10.179688 -3.21875 10.5 -4.378906 10.5 -5.953125 C 10.5 -7.523438 10.179688 -8.6875 9.546875 -9.4375 C 8.921875 -10.1875 8.015625 -10.5625 6.828125 -10.5625 C 5.640625 -10.5625 4.726562 -10.179688 4.09375 -9.421875 C 3.46875 -8.671875 3.15625 -7.515625 3.15625 -5.953125 C 3.15625 -4.378906 3.46875 -3.21875 4.09375 -2.46875 C 4.726562 -1.71875 5.640625 -1.34375 6.828125 -1.34375 Z M 6.828125 -1.34375 "/></g></g><g style="fill:#243544;fill-opacity:1;"><g transform="translate(225.397774, 268.722754)"><path style="stroke:none" d="M 4.734375 0.234375 C 3.890625 0.234375 3.226562 -0.00390625 2.75 -0.484375 C 2.269531 -0.960938 2.03125 -1.679688 2.03125 -2.640625 L 2.03125 -16.6875 L 3.796875 -16.6875 L 3.796875 -2.75 C 3.796875 -2.257812 3.890625 -1.898438 4.078125 -1.671875 C 4.265625 -1.453125 4.5625 -1.34375 4.96875 -1.34375 C 5.207031 -1.34375 5.453125 -1.382812 5.703125 -1.46875 L 5.859375 -1.421875 L 6.0625 -0.046875 C 5.9375 0.046875 5.753906 0.113281 5.515625 0.15625 C 5.273438 0.207031 5.015625 0.234375 4.734375 0.234375 Z M 4.734375 0.234375 "/></g></g><g style="fill:#243544;fill-opacity:1;"><g transform="translate(231.876094, 268.722754)"><path style="stroke:none" d="M 5.890625 0.234375 C 4.535156 0.234375 3.53125 -0.117188 2.875 -0.828125 C 2.21875 -1.546875 1.890625 -2.59375 1.890625 -3.96875 L 1.890625 -11.90625 L 3.65625 -11.90625 L 3.65625 -4.015625 C 3.65625 -2.210938 4.503906 -1.3125 6.203125 -1.3125 C 7.273438 -1.3125 8.125 -1.660156 8.75 -2.359375 C 9.375 -3.066406 9.6875 -4.210938 9.6875 -5.796875 L 9.6875 -11.90625 L 11.453125 -11.90625 L 11.453125 0 L 9.796875 0 L 9.796875 -1.875 L 9.5625 -1.921875 C 9.15625 -1.191406 8.664062 -0.648438 8.09375 -0.296875 C 7.519531 0.0546875 6.785156 0.234375 5.890625 0.234375 Z M 5.890625 0.234375 "/></g></g><g style="fill:#243544;fill-opacity:1;"><g transform="translate(245.404993, 268.722754)"><path style="stroke:none" d="M 8.046875 -1.890625 L 8.609375 -0.625 C 8.328125 -0.34375 7.957031 -0.128906 7.5 0.015625 C 7.050781 0.160156 6.5625 0.234375 6.03125 0.234375 C 3.75 0.234375 2.609375 -0.921875 2.609375 -3.234375 L 2.609375 -10.46875 L 0.546875 -10.46875 L 0.546875 -11.921875 L 2.609375 -11.921875 L 2.609375 -14.4375 L 4.375 -14.71875 L 4.375 -11.921875 L 8.203125 -11.921875 L 8.203125 -10.46875 L 4.375 -10.46875 L 4.375 -3.40625 C 4.375 -2.03125 4.96875 -1.34375 6.15625 -1.34375 C 6.800781 -1.34375 7.359375 -1.523438 7.828125 -1.890625 Z M 8.046875 -1.890625 "/></g></g><g style="fill:#243544;fill-opacity:1;"><g transform="translate(254.474641, 268.722754)"><path style="stroke:none" d="M 2.953125 -14.203125 C 2.578125 -14.203125 2.269531 -14.316406 2.03125 -14.546875 C 1.800781 -14.785156 1.6875 -15.085938 1.6875 -15.453125 C 1.6875 -15.804688 1.800781 -16.097656 2.03125 -16.328125 C 2.269531 -16.566406 2.578125 -16.6875 2.953125 -16.6875 C 3.328125 -16.6875 3.628906 -16.566406 3.859375 -16.328125 C 4.097656 -16.097656 4.21875 -15.804688 4.21875 -15.453125 C 4.21875 -15.085938 4.097656 -14.785156 3.859375 -14.546875 C 3.628906 -14.316406 3.328125 -14.203125 2.953125 -14.203125 Z M 2.078125 0 L 2.078125 -11.90625 L 3.828125 -11.90625 L 3.828125 0 Z M 2.078125 0 "/></g></g><g style="fill:#243544;fill-opacity:1;"><g transform="translate(260.380717, 268.722754)"><path style="stroke:none" d="M 6.828125 0.234375 C 5.710938 0.234375 4.738281 -0.00390625 3.90625 -0.484375 C 3.070312 -0.960938 2.429688 -1.660156 1.984375 -2.578125 C 1.535156 -3.503906 1.3125 -4.628906 1.3125 -5.953125 C 1.3125 -7.265625 1.535156 -8.382812 1.984375 -9.3125 C 2.429688 -10.238281 3.070312 -10.941406 3.90625 -11.421875 C 4.738281 -11.898438 5.710938 -12.140625 6.828125 -12.140625 C 7.953125 -12.140625 8.929688 -11.898438 9.765625 -11.421875 C 10.597656 -10.941406 11.238281 -10.238281 11.6875 -9.3125 C 12.132812 -8.382812 12.359375 -7.265625 12.359375 -5.953125 C 12.359375 -4.628906 12.132812 -3.503906 11.6875 -2.578125 C 11.238281 -1.660156 10.597656 -0.960938 9.765625 -0.484375 C 8.929688 -0.00390625 7.953125 0.234375 6.828125 0.234375 Z M 6.828125 -1.34375 C 8.015625 -1.34375 8.921875 -1.71875 9.546875 -2.46875 C 10.179688 -3.21875 10.5 -4.378906 10.5 -5.953125 C 10.5 -7.523438 10.179688 -8.6875 9.546875 -9.4375 C 8.921875 -10.1875 8.015625 -10.5625 6.828125 -10.5625 C 5.640625 -10.5625 4.726562 -10.179688 4.09375 -9.421875 C 3.46875 -8.671875 3.15625 -7.515625 3.15625 -5.953125 C 3.15625 -4.378906 3.46875 -3.21875 4.09375 -2.46875 C 4.726562 -1.71875 5.640625 -1.34375 6.828125 -1.34375 Z M 6.828125 -1.34375 "/></g></g><g style="fill:#243544;fill-opacity:1;"><g transform="translate(274.049971, 268.722754)"><path style="stroke:none" d="M 2.078125 0 L 2.078125 -11.90625 L 3.75 -11.90625 L 3.75 -10.046875 L 3.96875 -9.984375 C 4.363281 -10.679688 4.867188 -11.210938 5.484375 -11.578125 C 6.097656 -11.953125 6.847656 -12.140625 7.734375 -12.140625 C 9.171875 -12.140625 10.210938 -11.769531 10.859375 -11.03125 C 11.503906 -10.300781 11.828125 -9.179688 11.828125 -7.671875 L 11.828125 0 L 10.0625 0 L 10.0625 -7.625 C 10.0625 -8.34375 9.96875 -8.914062 9.78125 -9.34375 C 9.601562 -9.78125 9.320312 -10.097656 8.9375 -10.296875 C 8.550781 -10.492188 8.046875 -10.59375 7.421875 -10.59375 C 6.347656 -10.59375 5.476562 -10.238281 4.8125 -9.53125 C 4.15625 -8.820312 3.828125 -7.679688 3.828125 -6.109375 L 3.828125 0 Z M 2.078125 0 "/></g></g><g style="fill:#243544;fill-opacity:1;"><g transform="translate(43.266974, 237.157587)"><path style="stroke:none" d="M 35.28125 0 L 24.015625 0 L 10.78125 -15.21875 L 10.78125 0 L 2.609375 0 L 2.609375 -35.890625 L 10.78125 -35.890625 L 10.78125 -21.234375 L 23.09375 -35.890625 L 33.015625 -35.890625 L 18.578125 -18.875 Z M 35.28125 0 "/></g></g><g style="fill:#243544;fill-opacity:1;"><g transform="translate(77.496578, 237.157587)"><path style="stroke:none" d="M 20.84375 -35.890625 L 35.328125 0 L 26.53125 0 L 23.875 -7.171875 L 10.21875 -7.171875 L 7.5625 0 L -1.21875 0 L 13.265625 -35.890625 Z M 21.09375 -14.359375 L 17.09375 -24.796875 L 17.015625 -24.796875 L 13 -14.359375 Z M 21.09375 -14.359375 "/></g></g><g style="fill:#243544;fill-opacity:1;"><g transform="translate(111.595701, 237.157587)"><path style="stroke:none" d="M 2.609375 -35.890625 L 15.4375 -35.890625 C 18.894531 -35.890625 21.707031 -34.96875 23.875 -33.125 C 26.050781 -31.28125 27.140625 -28.648438 27.140625 -25.234375 C 27.140625 -22.585938 26.476562 -20.375 25.15625 -18.59375 C 23.84375 -16.8125 22.054688 -15.554688 19.796875 -14.828125 L 32.140625 0 L 21.75 0 L 10.78125 -14.1875 L 10.78125 0 L 2.609375 0 Z M 10.78125 -19.96875 L 11.75 -19.96875 C 12.5 -19.96875 13.132812 -19.976562 13.65625 -20 C 14.175781 -20.03125 14.769531 -20.132812 15.4375 -20.3125 C 16.101562 -20.488281 16.640625 -20.734375 17.046875 -21.046875 C 17.453125 -21.367188 17.800781 -21.832031 18.09375 -22.4375 C 18.382812 -23.050781 18.53125 -23.789062 18.53125 -24.65625 C 18.53125 -25.53125 18.382812 -26.269531 18.09375 -26.875 C 17.800781 -27.488281 17.453125 -27.953125 17.046875 -28.265625 C 16.640625 -28.585938 16.101562 -28.835938 15.4375 -29.015625 C 14.769531 -29.191406 14.175781 -29.289062 13.65625 -29.3125 C 13.132812 -29.34375 12.5 -29.359375 11.75 -29.359375 L 10.78125 -29.359375 Z M 10.78125 -19.96875 "/></g></g><g style="fill:#243544;fill-opacity:1;"><g transform="translate(142.737248, 237.157587)"><path style="stroke:none" d="M -1.3125 -35.890625 L 8.53125 -35.890625 L 16.015625 -24.40625 L 23.484375 -35.890625 L 33.328125 -35.890625 L 20.09375 -16.09375 L 20.09375 0 L 11.921875 0 L 11.921875 -16.09375 Z M -1.3125 -35.890625 "/></g></g><g style="fill:#243544;fill-opacity:1;"><g transform="translate(174.748682, 237.157587)"><path style="stroke:none" d="M 20.84375 -35.890625 L 35.328125 0 L 26.53125 0 L 23.875 -7.171875 L 10.21875 -7.171875 L 7.5625 0 L -1.21875 0 L 13.265625 -35.890625 Z M 21.09375 -14.359375 L 17.09375 -24.796875 L 17.015625 -24.796875 L 13 -14.359375 Z M 21.09375 -14.359375 "/></g></g><g style="fill:#243544;fill-opacity:1;"><g transform="translate(208.847805, 237.157587)"><path style="stroke:none" d="M 15.828125 -36.546875 C 17.773438 -36.546875 19.675781 -36.257812 21.53125 -35.6875 C 23.382812 -35.125 24.765625 -34.566406 25.671875 -34.015625 L 26.96875 -33.140625 L 23.65625 -26.625 C 23.394531 -26.800781 23.03125 -27.023438 22.5625 -27.296875 C 22.101562 -27.566406 21.234375 -27.929688 19.953125 -28.390625 C 18.679688 -28.859375 17.5 -29.09375 16.40625 -29.09375 C 15.039062 -29.09375 13.988281 -28.800781 13.25 -28.21875 C 12.507812 -27.644531 12.140625 -26.863281 12.140625 -25.875 C 12.140625 -25.382812 12.3125 -24.925781 12.65625 -24.5 C 13.007812 -24.082031 13.601562 -23.632812 14.4375 -23.15625 C 15.28125 -22.6875 16.019531 -22.304688 16.65625 -22.015625 C 17.300781 -21.722656 18.289062 -21.285156 19.625 -20.703125 C 21.9375 -19.722656 23.910156 -18.382812 25.546875 -16.6875 C 27.191406 -14.988281 28.015625 -13.066406 28.015625 -10.921875 C 28.015625 -8.859375 27.644531 -7.054688 26.90625 -5.515625 C 26.164062 -3.984375 25.148438 -2.78125 23.859375 -1.90625 C 22.566406 -1.039062 21.132812 -0.398438 19.5625 0.015625 C 18 0.441406 16.304688 0.65625 14.484375 0.65625 C 12.921875 0.65625 11.382812 0.492188 9.875 0.171875 C 8.363281 -0.140625 7.097656 -0.535156 6.078125 -1.015625 C 5.066406 -1.492188 4.15625 -1.960938 3.34375 -2.421875 C 2.53125 -2.890625 1.9375 -3.285156 1.5625 -3.609375 L 1 -4.09375 L 5.09375 -10.96875 C 5.4375 -10.675781 5.910156 -10.300781 6.515625 -9.84375 C 7.128906 -9.394531 8.210938 -8.796875 9.765625 -8.046875 C 11.316406 -7.296875 12.6875 -6.921875 13.875 -6.921875 C 17.320312 -6.921875 19.046875 -8.09375 19.046875 -10.4375 C 19.046875 -10.925781 18.921875 -11.378906 18.671875 -11.796875 C 18.429688 -12.222656 18 -12.644531 17.375 -13.0625 C 16.75 -13.488281 16.195312 -13.820312 15.71875 -14.0625 C 15.238281 -14.3125 14.457031 -14.691406 13.375 -15.203125 C 12.289062 -15.710938 11.488281 -16.097656 10.96875 -16.359375 C 8.789062 -17.429688 7.101562 -18.769531 5.90625 -20.375 C 4.71875 -21.988281 4.125 -23.722656 4.125 -25.578125 C 4.125 -28.796875 5.3125 -31.425781 7.6875 -33.46875 C 10.070312 -35.519531 12.785156 -36.546875 15.828125 -36.546875 Z M 15.828125 -36.546875 "/></g></g><g style="fill:#243544;fill-opacity:1;"><g transform="translate(238.075638, 237.157587)"><path style="stroke:none" d="M 10.78125 -35.890625 L 10.78125 0 L 2.609375 0 L 2.609375 -35.890625 Z M 10.78125 -35.890625 "/></g></g><g style="fill:#243544;fill-opacity:1;"><g transform="translate(251.471727, 237.157587)"><path style="stroke:none" d="M 18.21875 -35.890625 L 18.21875 -10.140625 C 18.21875 -6.628906 17.253906 -3.953125 15.328125 -2.109375 C 13.398438 -0.265625 10.640625 0.65625 7.046875 0.65625 C 6.085938 0.65625 5.144531 0.535156 4.21875 0.296875 C 3.289062 0.0664062 2.503906 -0.210938 1.859375 -0.546875 C 1.222656 -0.878906 0.648438 -1.21875 0.140625 -1.5625 C -0.359375 -1.914062 -0.722656 -2.207031 -0.953125 -2.4375 L -1.34375 -2.78125 L 1.265625 -9.609375 C 2.972656 -7.984375 4.523438 -7.171875 5.921875 -7.171875 C 7.160156 -7.171875 8.15625 -7.582031 8.90625 -8.40625 C 9.664062 -9.238281 10.046875 -10.507812 10.046875 -12.21875 L 10.046875 -35.890625 Z M 18.21875 -35.890625 "/></g></g><g style="fill:#243544;fill-opacity:1;"><g transform="translate(271.870307, 237.157587)"><path style="stroke:none" d="M 20.84375 -35.890625 L 35.328125 0 L 26.53125 0 L 23.875 -7.171875 L 10.21875 -7.171875 L 7.5625 0 L -1.21875 0 L 13.265625 -35.890625 Z M 21.09375 -14.359375 L 17.09375 -24.796875 L 17.015625 -24.796875 L 13 -14.359375 Z M 21.09375 -14.359375 "/></g></g><g style="fill:#243544;fill-opacity:1;"><g transform="translate(305.96943, 237.157587)"><path style="stroke:none" d="M 7.5625 -9.3125 C 8.957031 -9.3125 10.140625 -8.820312 11.109375 -7.84375 C 12.085938 -6.875 12.578125 -5.695312 12.578125 -4.3125 C 12.578125 -2.945312 12.085938 -1.773438 11.109375 -0.796875 C 10.140625 0.171875 8.957031 0.65625 7.5625 0.65625 C 6.207031 0.65625 5.039062 0.171875 4.0625 -0.796875 C 3.09375 -1.773438 2.609375 -2.945312 2.609375 -4.3125 C 2.609375 -5.695312 3.09375 -6.875 4.0625 -7.84375 C 5.039062 -8.820312 6.207031 -9.3125 7.5625 -9.3125 Z M 7.5625 -9.3125 "/></g></g><g style="fill:#243544;fill-opacity:1;"><g transform="translate(321.148753, 237.157587)"><path style="stroke:none" d="M 10.78125 -35.890625 L 10.78125 0 L 2.609375 0 L 2.609375 -35.890625 Z M 10.78125 -35.890625 "/></g></g><g style="fill:#243544;fill-opacity:1;"><g transform="translate(334.544842, 237.157587)"><path style="stroke:none" d="M 2.609375 -35.890625 L 13 -35.890625 C 17.988281 -35.890625 22.253906 -34.1875 25.796875 -30.78125 C 29.335938 -27.375 31.109375 -23.101562 31.109375 -17.96875 C 31.109375 -12.800781 29.34375 -8.515625 25.8125 -5.109375 C 22.289062 -1.703125 18.019531 0 13 0 L 2.609375 0 Z M 10.78125 -7.3125 L 12.046875 -7.3125 C 15.035156 -7.3125 17.476562 -8.316406 19.375 -10.328125 C 21.28125 -12.347656 22.242188 -14.878906 22.265625 -17.921875 C 22.265625 -20.960938 21.316406 -23.5 19.421875 -25.53125 C 17.523438 -27.5625 15.066406 -28.578125 12.046875 -28.578125 L 10.78125 -28.578125 Z M 10.78125 -7.3125 "/></g></g></g></svg>